<svg width="228" height="56" viewBox="0 0 228 56" fill="none" xmlns="http://www.w3.org/2000/svg">
<path d="M12.2782 25.6543H10.0248C7.13583 25.6543 4.76685 24.7587 2.91789 22.9964C0.98226 20.9741 0 18.4896 0 15.6006V3.29346C0 2.39787 0.31779 1.61784 0.98226 0.98226C1.64673 0.31779 2.39787 0 3.29346 0C4.24683 0 5.02686 0.31779 5.66244 0.98226C6.32691 1.61784 6.67359 2.39787 6.67359 3.29346V15.6006C6.67359 16.2362 6.78915 16.9295 7.04916 17.6518C7.59807 18.5185 8.49366 18.9807 9.8226 18.9807H10.8915H32.1835C35.1013 18.9807 37.4703 19.8763 39.2904 21.6386C41.226 23.6609 42.2083 26.1454 42.2083 29.0344V52.5798C42.2083 53.4754 41.8905 54.2265 41.226 54.891C40.5904 55.5266 39.8104 55.8733 38.9437 55.8733C37.9903 55.8733 37.1814 55.5266 36.5458 54.891C35.8814 54.2265 35.5636 53.4754 35.5636 52.5798V29.0344C35.5636 28.3989 35.4191 27.7055 35.188 27.0121C34.6391 26.1166 33.7146 25.6543 32.4146 25.6543H12.2782Z" fill="#F9FAFE"/>
<path d="M6.67359 42.4972V52.5799C6.67359 53.4754 6.32691 54.2266 5.69133 54.8911C5.02686 55.5555 4.24683 55.8733 3.38013 55.8733C2.42676 55.8733 1.61784 55.5555 0.98226 54.8911C0.31779 54.2266 0 53.4754 0 52.5799V42.4972V33.0791C0 32.1835 0.31779 31.4324 0.98226 30.7679C1.61784 30.1034 2.39787 29.7856 3.29346 29.7856C4.24683 29.7856 5.02686 30.1034 5.69133 30.7679C6.32691 31.4324 6.67359 32.1835 6.67359 33.0791V42.4972Z" fill="#F9FAFE"/>
<path d="M220.46 25.6536H224.707C225.602 25.6536 226.382 25.3358 227.018 24.6713C227.682 24.0357 228 23.2268 228 22.2734C228 21.3779 227.682 20.5978 227.018 19.9622C226.382 19.2978 225.602 18.98 224.707 18.98H220.46H205.177C202.288 18.98 199.89 19.9045 197.984 21.7245C196.106 23.6024 195.152 26.0291 195.152 29.0337V52.579C195.152 53.4746 195.47 54.2547 196.135 54.8902C196.77 55.5547 197.579 55.8725 198.532 55.8725C199.399 55.8725 200.179 55.5547 200.844 54.8902C201.479 54.2547 201.826 53.4746 201.826 52.579V29.0337C201.826 26.7803 202.895 25.6536 205.091 25.6536H220.46Z" fill="#F9FAFE"/>
<path d="M105.679 43.7973V52.5799C105.679 53.4754 105.362 54.2266 104.697 54.8911C104.062 55.5555 103.281 55.8733 102.386 55.8733C101.461 55.8733 100.653 55.5555 100.017 54.8911C99.3525 54.2266 99.0347 53.4754 99.0347 52.5799V43.7973V33.0791C99.0347 32.1835 99.3525 31.4324 100.017 30.7679C100.653 30.1034 101.433 29.7856 102.299 29.7856C103.253 29.7856 104.062 30.1034 104.697 30.7679C105.362 31.4324 105.679 32.1835 105.679 33.0791V43.7973Z" fill="#F9FAFE"/>
<path d="M106.575 25.6536H102.299C101.433 25.6536 100.653 25.3358 100.017 24.6713C99.3525 24.0357 99.0347 23.2268 99.0347 22.2734C99.0347 21.3779 99.3525 20.5978 100.017 19.9622C100.653 19.2978 101.433 18.98 102.299 18.98H106.575H128.271C131.16 18.98 133.558 19.9045 135.465 21.7245C137.343 23.6024 138.296 26.0291 138.296 29.0337V52.579C138.296 53.4746 137.978 54.2258 137.314 54.8902C136.678 55.5258 135.869 55.8725 134.916 55.8725C134.02 55.8725 133.269 55.5258 132.605 54.8902C131.969 54.2258 131.651 53.4746 131.651 52.579V29.0337C131.651 26.7803 130.554 25.6536 128.358 25.6536H106.575Z" fill="#F9FAFE"/>
<path d="M62.2584 55.8725H59.3983C56.5093 55.8725 54.0536 54.8902 52.0602 52.9257C50.269 51.0768 49.4023 48.7078 49.4023 45.8188V29.0337C49.4023 26.4914 50.1246 24.2957 51.598 22.4757C53.4469 20.1356 55.9893 18.98 59.3116 18.98H78.3501H81.8458C84.7348 18.98 87.1905 19.9622 89.2128 21.9268C90.975 23.7468 91.8706 26.1447 91.8706 29.0337V32.7027V45.8766C91.8706 48.39 91.1195 50.5567 89.6461 52.3768C87.7394 54.7169 85.1393 55.8725 81.8458 55.8725H59.3983H62.2584ZM56.047 42.1209V46.021C56.047 47.3211 56.4804 48.2455 57.376 48.7945C58.0982 49.0545 58.7627 49.1989 59.3983 49.1989H62.2584H81.9614C83.3192 49.1989 84.2726 48.7367 84.8215 47.8411C85.0815 47.1477 85.197 46.4544 85.197 45.8188V32.7027V28.8315C85.197 27.5314 84.7637 26.578 83.8681 26.058C83.1748 25.798 82.4814 25.6536 81.8458 25.6536H78.3501H59.1961C57.896 25.6536 56.9715 26.1158 56.4226 27.0114C56.1626 27.7048 56.047 28.3981 56.047 29.0337V46.021V42.1209Z" fill="#F9FAFE"/>
<path d="M158.375 55.8725H155.544C152.626 55.8725 150.17 54.8902 148.177 52.9257C146.386 51.0768 145.519 48.7078 145.519 45.8188V29.0337C145.519 26.4914 146.241 24.2957 147.715 22.4757C149.564 20.1356 152.135 18.98 155.428 18.98H174.467H177.963C180.852 18.98 183.307 19.9622 185.329 21.9268C187.092 23.7468 187.987 26.1447 187.987 29.0337V32.7027V45.8766C187.987 48.39 187.236 50.5567 185.763 52.3768C183.856 54.7169 181.256 55.8725 177.963 55.8725H155.544H158.375ZM152.164 42.1209V46.021C152.164 47.3211 152.597 48.2455 153.493 48.7945C154.215 49.0545 154.879 49.1989 155.544 49.1989H158.375H178.078C179.436 49.1989 180.389 48.7367 180.938 47.8411C181.198 47.1477 181.314 46.4544 181.314 45.8188V32.7027V28.8315C181.314 27.5314 180.88 26.578 180.014 26.058C179.291 25.798 178.598 25.6536 177.963 25.6536H174.467H155.313C154.013 25.6536 153.088 26.1158 152.539 27.0114C152.279 27.7048 152.164 28.3981 152.164 29.0337V46.021V42.1209Z" fill="#F9FAFE"/>
</svg>
