<svg width="155" height="38" viewBox="0 0 155 38" fill="none" xmlns="http://www.w3.org/2000/svg">
<path d="M8.34705 17.4404H6.81512C4.85111 17.4404 3.24062 16.8316 1.98365 15.6335C0.667764 14.2587 0 12.5697 0 10.6057V2.23897C0 1.63013 0.216041 1.09985 0.667764 0.667764C1.11949 0.216041 1.63013 0 2.23897 0C2.8871 0 3.41738 0.216041 3.84947 0.667764C4.30119 1.09985 4.53687 1.63013 4.53687 2.23897V10.6057C4.53687 11.0378 4.61543 11.5091 4.79219 12.0001C5.16535 12.5893 5.7742 12.9036 6.67764 12.9036H7.40433H21.8791C23.8628 12.9036 25.4732 13.5124 26.7106 14.7105C28.0265 16.0853 28.6942 17.7743 28.6942 19.7383V35.745C28.6942 36.3539 28.4782 36.8645 28.0265 37.3162C27.5944 37.7483 27.0641 37.984 26.4749 37.984C25.8268 37.984 25.2768 37.7483 24.8448 37.3162C24.393 36.8645 24.177 36.3539 24.177 35.745V19.7383C24.177 19.3062 24.0788 18.8349 23.9217 18.3635C23.5485 17.7547 22.92 17.4404 22.0362 17.4404H8.34705Z" fill="#F9FAFE"/>
<path d="M4.53687 28.8907V35.7451C4.53687 36.3539 4.30119 36.8646 3.86911 37.3163C3.41738 37.768 2.8871 37.9841 2.2979 37.9841C1.64977 37.9841 1.09985 37.768 0.667764 37.3163C0.216041 36.8646 0 36.3539 0 35.7451V28.8907V22.488C0 21.8792 0.216041 21.3685 0.667764 20.9168C1.09985 20.4651 1.63013 20.249 2.23897 20.249C2.8871 20.249 3.41738 20.4651 3.86911 20.9168C4.30119 21.3685 4.53687 21.8792 4.53687 22.488V28.8907Z" fill="#F9FAFE"/>
<path d="M149.874 17.4402H152.761C153.37 17.4402 153.9 17.2241 154.332 16.7724C154.784 16.3403 155 15.7904 155 15.1423C155 14.5335 154.784 14.0032 154.332 13.5711C153.9 13.1194 153.37 12.9033 152.761 12.9033H149.874H139.485C137.521 12.9033 135.89 13.5318 134.594 14.7691C133.318 16.0457 132.669 17.6955 132.669 19.7381V35.7448C132.669 36.3536 132.885 36.8839 133.337 37.316C133.769 37.7677 134.319 37.9838 134.967 37.9838C135.557 37.9838 136.087 37.7677 136.539 37.316C136.971 36.8839 137.206 36.3536 137.206 35.7448V19.7381C137.206 18.2062 137.933 17.4402 139.426 17.4402H149.874Z" fill="#F9FAFE"/>
<path d="M71.8434 29.7745V35.7451C71.8434 36.3539 71.6274 36.8646 71.1756 37.3163C70.7436 37.768 70.2133 37.9841 69.6044 37.9841C68.9759 37.9841 68.426 37.768 67.9939 37.3163C67.5422 36.8646 67.3262 36.3539 67.3262 35.7451V29.7745V22.488C67.3262 21.8792 67.5422 21.3685 67.9939 20.9168C68.426 20.4651 68.9563 20.249 69.5455 20.249C70.1936 20.249 70.7436 20.4651 71.1756 20.9168C71.6274 21.3685 71.8434 21.8792 71.8434 22.488V29.7745Z" fill="#F9FAFE"/>
<path d="M72.4522 17.4402H69.5455C68.9563 17.4402 68.426 17.2241 67.9939 16.7724C67.5422 16.3403 67.3262 15.7904 67.3262 15.1423C67.3262 14.5335 67.5422 14.0032 67.9939 13.5711C68.426 13.1194 68.9563 12.9033 69.5455 12.9033H72.4522H87.202C89.166 12.9033 90.7961 13.5318 92.0924 14.7691C93.369 16.0457 94.0171 17.6955 94.0171 19.7381V35.7448C94.0171 36.3536 93.8011 36.8643 93.3493 37.316C92.9173 37.7481 92.3673 37.9838 91.7192 37.9838C91.1104 37.9838 90.5997 37.7481 90.148 37.316C89.7159 36.8643 89.4999 36.3536 89.4999 35.7448V19.7381C89.4999 18.2062 88.7536 17.4402 87.2609 17.4402H72.4522Z" fill="#F9FAFE"/>
<path d="M42.3248 37.9838H40.3804C38.4164 37.9838 36.747 37.316 35.3919 35.9805C34.1742 34.7235 33.585 33.113 33.585 31.149V19.7381C33.585 18.0098 34.076 16.5171 35.0776 15.2798C36.3346 13.6889 38.0629 12.9033 40.3215 12.9033H53.2644H55.6408C57.6048 12.9033 59.2743 13.5711 60.6491 14.9066C61.8471 16.1439 62.4559 17.7741 62.4559 19.7381V22.2324V31.1883C62.4559 32.897 61.9453 34.37 60.9437 35.6073C59.6474 37.1982 57.8798 37.9838 55.6408 37.9838H40.3804H42.3248ZM38.1022 28.6351V31.2865C38.1022 32.1703 38.3968 32.7988 39.0056 33.1719C39.4966 33.3487 39.9484 33.4469 40.3804 33.4469H42.3248H55.7194C56.6425 33.4469 57.2906 33.1327 57.6638 32.5238C57.8405 32.0524 57.9191 31.5811 57.9191 31.149V22.2324V19.6006C57.9191 18.7168 57.6245 18.0687 57.0156 17.7152C56.5443 17.5384 56.0729 17.4402 55.6408 17.4402H53.2644H40.243C39.3592 17.4402 38.7307 17.7544 38.3575 18.3633C38.1808 18.8346 38.1022 19.306 38.1022 19.7381V31.2865V28.6351Z" fill="#F9FAFE"/>
<path d="M107.667 37.9838H105.742C103.759 37.9838 102.089 37.316 100.734 35.9805C99.5164 34.7235 98.9272 33.113 98.9272 31.149V19.7381C98.9272 18.0098 99.4182 16.5171 100.42 15.2798C101.677 13.6889 103.425 12.9033 105.664 12.9033H118.607H120.983C122.947 12.9033 124.617 13.5711 125.991 14.9066C127.189 16.1439 127.798 17.7741 127.798 19.7381V22.2324V31.1883C127.798 32.897 127.288 34.37 126.286 35.6073C124.99 37.1982 123.222 37.9838 120.983 37.9838H105.742H107.667ZM103.444 28.6351V31.2865C103.444 32.1703 103.739 32.7988 104.348 33.1719C104.839 33.3487 105.291 33.4469 105.742 33.4469H107.667H121.062C121.985 33.4469 122.633 33.1327 123.006 32.5238C123.183 32.0524 123.261 31.5811 123.261 31.149V22.2324V19.6006C123.261 18.7168 122.967 18.0687 122.378 17.7152C121.887 17.5384 121.415 17.4402 120.983 17.4402H118.607H105.585C104.701 17.4402 104.073 17.7544 103.7 18.3633C103.523 18.8346 103.444 19.306 103.444 19.7381V31.2865V28.6351Z" fill="#F9FAFE"/>
</svg>
